# xmcd
#
# Track frame offsets:
#	150
#	13442
#	30286
#	42050
#	57132
#	69065
#	85379
#	96850
#	112176
#	126921
#	136756
#	150106
#	160192
#	172454
#	188937
#	201990
#	212962
#	227133
#	237989
#	250207
#	264035
#	279015
#
# Disc length: 3942 seconds
#
# Revision: 1
# Processed by: cddbd v1.5.2PL0 Copyright (c) Steve Scherf et al.
# Submitted via: audiograbber 1.83.01
#
DISCID=2b0f6416
DTITLE=Don Williams - Treasures ( Lost and Found )
DYEAR=2001
DGENRE=Country
TTITLE0=Playing Around
TTITLE1=To Be Your Man
TTITLE2=It's About Time
TTITLE3=Aint It Amazing
TTITLE4=Expert At Everything
TTITLE5=Beautiful Woman
TTITLE6=Leavin'
TTITLE7=I Can't Stop Lovin' You
TTITLE8=I'll Never Need Another You
TTITLE9=I Can Make It With You
TTITLE10=I'll Forgive But I'll Never Forget
TTITLE11=In The Morning
TTITLE12=I Don't Want The Money
TTITLE13=Love At The Five And Dime
TTITLE14=It's Alright
TTITLE15=If I Were A Carpenter
TTITLE16=O' Come All Ye Faithful
TTITLE17=I'll Be Gone
TTITLE18=Green Green Grass Of Home
TTITLE19=Guantanamera
TTITLE20=Time
TTITLE21=The Proper Mrs Brown
EXTD=This Listing Is For Disc 2
EXTT0=
EXTT1=
EXTT2=
EXTT3=
EXTT4=
EXTT5=
EXTT6=
EXTT7=
EXTT8=
EXTT9=
EXTT10=
EXTT11=
EXTT12=
EXTT13=
EXTT14=
EXTT15=
EXTT16=
EXTT17=
EXTT18=
EXTT19=
EXTT20=
EXTT21=
PLAYORDER=
